# xmcd
#
# Track frame offsets:
#	150
#	17628
#	32528
#	43952
#	58971
#	77765
#	94269
#	110352
#	129167
#	139132
#	154507
#	178404
#
# Disc length: 2572 seconds
#
# Revision: 0
# Processed by: cddbd v1.5PL3 Copyright (c) Steve Scherf et al.
# Submitted via: dBpowerAMP V4.0
#
DISCID=9e0a0a0c
DTITLE=Louise Hoffsten - Knäckebröd Blues
DYEAR=2002
DGENRE=Blues
TTITLE0=The Seduction of Sweet Louise
TTITLE1=Baby, Don't You Tear My Clothes
TTITLE2=Love To Love You
TTITLE3=Belly Up Blues
TTITLE4=I Pity The Fool
TTITLE5=I Guess I'm A Fool
TTITLE6=God Don't Ever Change
TTITLE7=I Just Wanna Make Love to You
TTITLE8=Slow Down
TTITLE9=Weak Brain, Narrow Mind
TTITLE10=It Servers You Right To Suffer
TTITLE11=Darling, Do You Remember Me?
EXTD=
EXTT0=
EXTT1=
EXTT2=
EXTT3=
EXTT4=
EXTT5=
EXTT6=
EXTT7=
EXTT8=
EXTT9=
EXTT10=
EXTT11=
PLAYORDER=
